<?xml version="1.0" encoding="UTF-8" standalone="no"?>
<svg width="24px" height="24px" viewBox="0 0 24 24" version="1.1" xmlns="http://www.w3.org/2000/svg" xmlns:xlink="http://www.w3.org/1999/xlink" xmlns:sketch="http://www.bohemiancoding.com/sketch/ns">
    <!-- Generator: Sketch 3.4 (15575) - http://www.bohemiancoding.com/sketch -->
    <title>cd-close-dark</title>
    <desc>Created with Sketch.</desc>
    <defs></defs>
    <g id="Page-1" stroke="none" stroke-width="1" fill="none" fill-rule="evenodd" sketch:type="MSPage">
        <g id="cd-close-dark" sketch:type="MSLayerGroup" fill="#FFFFFF">
            <path d="M23.7,1.7 C24.1,1.3 24.1,0.7 23.7,0.3 C23.3,-0.1 22.7,-0.1 22.3,0.3 L12,10.6 L1.7,0.3 C1.3,-0.1 0.7,-0.1 0.3,0.3 C-0.1,0.7 -0.1,1.3 0.3,1.7 L10.6,12 L0.3,22.3 C-0.1,22.7 -0.1,23.3 0.3,23.7 C0.5,23.9 0.7,24 1,24 C1.3,24 1.5,23.9 1.7,23.7 L12,13.4 L22.3,23.7 C22.5,23.9 22.8,24 23,24 C23.2,24 23.5,23.9 23.7,23.7 C24.1,23.3 24.1,22.7 23.7,22.3 L13.4,12 L23.7,1.7 Z" id="Shape" sketch:type="MSShapeGroup"></path>
        </g>
    </g>
</svg>